<?xml version="1.0" encoding="UTF-8"?>
<svg id="Layer_1" xmlns="http://www.w3.org/2000/svg" version="1.1" viewBox="0 0 696.7 630">
  <!-- Generator: Adobe Illustrator 29.2.1, SVG Export Plug-In . SVG Version: 2.1.0 Build 116)  -->
  <g id="SVGRepo_iconCarrier">
    <path d="M681.7,348.3v233.3c0,18.4-14.9,33.3-33.3,33.3H48.3c-18.4,0-33.3-14.9-33.3-33.3v-233.3c0-18.4,14.9-33.3,33.3-33.3s33.3,14.9,33.3,33.3v200h533.3v-200c0-18.4,14.9-33.3,33.3-33.3s33.3,14.9,33.3,33.3h0ZM348.3,15c-18.4,0-33.3,14.9-33.3,33.3v133.3h-133.3c-18.4,0-33.3,14.9-33.3,33.3s14.9,33.3,33.3,33.3h133.3v133.3c0,18.4,14.9,33.3,33.3,33.3s33.3-14.9,33.3-33.3v-133.3h133.3c18.4,0,33.3-14.9,33.3-33.3s-14.9-33.3-33.3-33.3h-133.3V48.3c0-18.4-14.9-33.3-33.3-33.3h0Z" fill="#181a21" stroke="#181a21" stroke-miterlimit="133.3" stroke-width="30"/>
  </g>
</svg>