<?xml version="1.0" encoding="UTF-8"?>
<svg id="Layer_1" data-name="Layer 1" xmlns="http://www.w3.org/2000/svg" viewBox="0 0 696.67 630">
  <g id="SVGRepo_iconCarrier" data-name="SVGRepo iconCarrier">
    <path d="M681.67,348.33v233.33c0,18.41-14.92,33.33-33.33,33.33H48.33c-18.41,0-33.33-14.92-33.33-33.33v-233.33c0-18.41,14.92-33.33,33.33-33.33s33.33,14.92,33.33,33.33v200h533.33v-200c0-18.41,14.92-33.33,33.33-33.33s33.33,14.92,33.33,33.33ZM348.33,15c-18.41,0-33.33,14.92-33.33,33.33v133.33h-133.33c-18.41,0-33.33,14.92-33.33,33.33s14.92,33.33,33.33,33.33h133.33v133.33c0,18.41,14.92,33.33,33.33,33.33s33.33-14.92,33.33-33.33v-133.33h133.33c18.41,0,33.33-14.92,33.33-33.33s-14.92-33.33-33.33-33.33h-133.33V48.33c0-18.41-14.92-33.33-33.33-33.33Z" style="stroke: #000; stroke-miterlimit: 133.33; stroke-width: 30px;"/>
  </g>
</svg>