<?xml version="1.0" encoding="UTF-8"?>
<svg id="Uploaded_to_svgrepo.com" data-name="Uploaded to svgrepo.com" xmlns="http://www.w3.org/2000/svg" viewBox="0 0 625 711.48">
  <g>
    <path d="M312.5,27.16C139.91,27.16,0,167.07,0,339.66h625c0-172.59-139.91-312.5-312.5-312.5Z" style="fill: #ff786e;"/>
    <path d="M312.5,652.16c172.59,0,312.5-139.91,312.5-312.5H0c0,172.59,139.91,312.5,312.5,312.5Z" style="fill: #be5652;"/>
  </g>
  <g>
    <path d="M137.26,47.86c6.51-2.3,9.93-9.44,7.61-15.95l-8.34-23.58c-2.3-6.51-9.45-9.91-15.95-7.61L38.1,29.89c-6.51,2.3-9.91,9.45-7.61,15.95l8.34,23.57c2.3,6.51,9.45,9.91,15.95,7.61l49.74,140.61s82.25-29.85,82.49-29.17l-49.74-140.61Z" style="fill: #3a3a3a;"/>
    <path d="M578.51,344.12c-2.59,7.01-35.59,1.29-73.7-12.8s-66.91-31.19-64.31-38.2c2.59-7.01,35.59-1.29,73.7,12.8s66.9,31.18,64.31,38.2ZM410.25,19.44c-39.55,9.29-70.24,22.73-68.52,30s35.16,5.65,74.71-3.64,70.24-22.72,68.52-30c-1.71-7.27-35.16-5.65-74.71,3.64Z" style="fill: gray;"/>
    <path d="M187,188.46l-49.74-140.6c6.51-2.3,9.93-9.44,7.61-15.95l-8.34-23.58c-2.3-6.51-9.45-9.91-15.95-7.61l-41.53,14.59,66.69,187.75c.68-.25,41.01-15.28,41.25-14.6Z" style="fill: #4d4d4d;"/>
    <path d="M115.67,398.81l-14.67-41.14c-5.71-16.14-6.1-33.87-.04-49.87,11.61-30.65,11.72-67.04,11.72-67.04l82.49-29.17s22.96,28.24,51.26,44.76c14.77,8.63,25.62,22.67,31.34,38.8l14.45,41.21c8.13,38.74-152.8,98.85-176.55,62.45ZM398.78,637.61s-57.5-162.77-57.56-162.71c5.22,41.93-155.45,97.35-176.28,62.8-.08.02,57.29,162.35,57.29,162.35,16.06,36.55,187.15-23.51,176.55-62.44Z" style="fill: #644638;"/>
    <path d="M166.31,408.27c-26.41,3.64-46.22.56-50.64-9.46l48.97,138.46c4.4,10.01,24.16,13.1,50.52,9.49l-48.86-138.49Z" style="fill: #aa9991;"/>
    <path d="M341.2,474.83s-48.85-138.51-48.97-138.46c6.44,23.66-65,63.54-125.9,71.95l48.84,138.41c61.81-8.46,132.41-48.46,126.04-71.9Z" style="fill: #efeae0;"/>
    <path d="M166.74,408.27c-26.41,3.64-46.65.56-51.06-9.46l-14.67-41.14c-5.71-16.14-6.1-33.87-.04-49.87,11.61-30.65,11.72-67.04,11.72-67.04l40.9-14.46c-1.69,6.21-19.65,76.69-4.21,129.29l17.36,52.69ZM215.18,546.76c-25.96,3.56-45.44.59-50.24-9.06-.08.02,57.29,162.35,57.29,162.35,4.46,10.15,23.56,14.3,51.55,9.34l-58.6-162.63Z" style="fill: #4b322a;"/>
    <path d="M503.86,447.84c-.52-.34-1.14-.58-1.82-.69l-13.68-2.24c-3.22-.52-6.6,1.6-7.73,4.43l-5.2,12.96c-.62,1.55-.5,3.05.21,4.2l-7.81-12.77c-.7-1.15-.83-2.65-.21-4.2l5.2-12.96c1.16-2.89,4.56-4.94,7.73-4.43l13.68,2.24c1.29.21,2.44.87,3.14,2.01l7.81,12.77c-.34-.54-.79-.99-1.31-1.32ZM453.94,115.67c-1.03-2.75-4.13-4.94-6.95-4.7-.01,0-13.54,1.15-13.72,1.16-1.16.15-2.06.65-2.69,1.35l-10.05,11.25c.69-.76,1.67-1.28,2.91-1.37l13.45-1.14c2.37-.2,4.71,1.25,6,2.94.01.01,4.71,13.75,5.36,15.83.5,1.6.34,3.34-.78,4.57l10.05-11.25c.99-1.11,1.25-2.65.9-4.14-.1-.45-4.39-14.25-4.49-14.5ZM434.01,155.56l-13.56-6.35c-1.19-.55-2.51-.49-3.73.05l-12.64,5.69c-2.93,1.33-4.64,4.91-4,7.96l2.81,13.69c.34,1.64,1.26,2.81,2.49,3.39l13.56,6.35c-1.22-.57-2.16-1.75-2.49-3.39l-2.81-13.69c-.61-2.98,1.03-6.61,4-7.96l12.64-5.69c1.3-.57,2.66-.55,3.73-.05ZM378.29,205.11l-36.56-155.66c1.71,7.27,35.16,5.65,74.71-3.64s70.24-22.72,68.52-30l36.56,155.66c5.66,24.14-137.58,57.75-143.24,33.64ZM500.61,164.43c.01-.06-12.84-54.85-12.9-55.09-3.04-12.94-109.88,12.06-106.81,25.09.06.28,12.94,55.03,12.97,55.08,5.35,11.96,107.28-11.98,106.74-25.08ZM578.51,344.12l-55.41,149.99c-8.58,23.23-146.61-27.72-138.01-51l55.41-149.99c-2.59,7.01,26.2,24.11,64.31,38.2s71.11,19.81,73.7,12.8ZM529.19,423.63c1.5-4.06-11.14-12.67-30.19-21.24.58,1.6.84,2.87.35,4.65-.02.09-4.05,13.88-4.06,13.92-.01.04-.02.09-.04.12-.51,1.54-1.55,2.8-3.12,3.21-1.29.34-15.79,4.17-14.51,3.8-1.03.29-2.17.17-3.28-.43l-11.84-6.47c-2.69-1.46-4.05-5.01-3.14-8.14l1.29-4.39h0l2.74-9.4c.54-1.85,1.81-3.09,3.32-3.42-.05.01,9.53-2.51,9.53-2.51-26.25-9.18-48.15-12.66-49.96-7.75-.1.26-19.57,53.03-19.57,53.09-.89,5.44,20.25,17.86,48.05,28.12,27.79,10.27,51.94,14.58,54.8,9.88.04-.04,19.5-52.65,19.64-53.05Z" style="fill: #ccc;"/>
    <path d="M195.18,211.58l-82.49,29.17-8.18-23.13,82.49-29.17,8.18,23.13ZM529.16,423.69l-19.53,52.85c-.02.05-.05.1-.1.15-2.86,4.71-27,.4-54.8-9.88-27.8-10.27-48.94-22.69-48.05-28.12,0-.06,0-.12.02-.17l19.53-52.85s.01-.02.01-.02c-1.5,4.37,13.1,13.91,34.38,23.04l-1.29,4.39c-.91,3.12.46,6.66,3.14,8.14l11.85,6.48c1.1.6,2.25.72,3.28.43-1.28.37,13.22-3.47,14.51-3.8,1.57-.41,2.61-1.67,3.12-3.21.01-.04.02-.09.04-.12,18.58,5.17,32.38,6.54,33.89,2.72ZM505.16,449.16l-7.81-12.77c-.71-1.15-1.86-1.8-3.14-2.01l-13.68-2.24c-3.1-.5-6.54,1.48-7.73,4.43l-5.19,12.98c-.62,1.55-.5,3.05.21,4.2l7.81,12.77s-.02-.05-.04-.08c.64,1.09,1.76,1.88,3.28,2.12l13.68,2.24c3,.49,6.45-1.49,7.64-4.44l5.2-12.96c1.21-3.09-1-5.47-.24-4.24ZM500.61,164.43c.52,13.11-101.39,37.04-106.74,25.08-.04-.05-12.96-55.03-12.96-55.03,1.15,4.43,18.19,4.38,40.55.39l2.54,8.19c.96,3.1,4.06,5.3,7.11,5.05,3.11-.26,14.61-.48,16.42-2.6-.02.03-.04.05-.05.08l10.05-11.25c1.07-1.2,1.26-2.84.83-4.4-.05-.16-1.14-3.67-1.19-3.84,18.77-5.97,31.4-12.61,30.54-16.69.01-.01,12.91,54.96,12.9,55.02ZM439.34,172.64l-2.81-13.69c-.35-1.7-1.35-2.91-2.64-3.46.04.01.09.04.12.05l-13.56-6.35c-1.2-.56-2.54-.48-3.73.05l-12.64,5.69c-2.87,1.3-4.64,4.86-4,7.95l2.81,13.69c.34,1.64,1.26,2.81,2.49,3.39l13.56,6.35-.08-.04c1.13.56,2.51.59,3.9-.04l12.64-5.69c2.78-1.22,4.56-4.77,3.92-7.9Z" style="fill: #be9148;"/>
    <path d="M529.19,423.63c-1.42,3.88-15.28,2.54-33.9-2.68.01-.05,4.04-13.84,4.06-13.92.49-1.76.23-3.04-.35-4.65,19.05,8.58,31.69,17.19,30.19,21.25ZM463.37,399.28c.54-1.85,1.81-3.09,3.32-3.42-.05.01,9.53-2.51,9.53-2.51-26.25-9.18-48.15-12.66-49.96-7.75-1.61,4.35,13.01,13.92,34.36,23.08l2.75-9.39ZM487.71,109.34c-3.04-12.94-109.88,12.06-106.81,25.09,1.05,4.46,18.13,4.44,40.56.43l-1.71-5.54c-.58-1.84-.2-3.56.87-4.69-.02.04-.06.06-.1.1l10.05-11.25c.75-.85,1.77-1.28,2.91-1.37l13.45-1.14c2.97-.26,6.17,2.11,7.11,5.05l3.12,10.06c18.85-6.01,31.5-12.66,30.54-16.74ZM153.59,226.29l41.59-14.71-8.17-23.13-41.25,14.59s7.92,22.96,7.84,23.25Z" style="fill: #ffc865;"/>
    <path d="M502.04,447.16c3,.49,4.54,3.28,3.35,6.24l-5.2,12.96c-1.19,2.95-4.64,4.93-7.63,4.44l-13.68-2.24c-3.09-.5-4.64-3.3-3.45-6.25l5.2-12.96c1.19-2.95,4.64-4.93,7.73-4.43l13.68,2.24ZM469.75,396.36c-2.69-1.46-5.49-.09-6.37,2.94l-4.02,13.79c-.91,3.12.46,6.66,3.14,8.14l11.85,6.48c2.6,1.41,5.46.19,6.37-2.94l4.02-13.79c.87-3.01-.55-6.71-3.14-8.14l-11.85-6.48ZM423.44,123.36c-3.05.26-4.62,2.96-3.7,5.96l4.25,13.71c.96,3.1,4.06,5.31,7.11,5.05l13.45-1.14c2.95-.25,4.66-2.86,3.7-5.96l-4.25-13.71c-.94-3-4.16-5.3-7.11-5.05l-13.45,1.14ZM417.66,161.29c-2.86,1.29-4.65,4.84-4,7.96l2.81,13.69c.64,3.11,3.46,4.6,6.33,3.31l12.64-5.69c2.76-1.25,4.55-4.8,3.91-7.91l-2.81-13.69c-.64-3.12-3.46-4.6-6.23-3.35l-12.65,5.68Z" style="fill: snow;"/>
  </g>
</svg>