<?xml version="1.0" encoding="UTF-8"?>
<svg id="Layer_1" xmlns="http://www.w3.org/2000/svg" version="1.1" viewBox="0 0 798.9 764.7">
  <!-- Generator: Adobe Illustrator 29.2.1, SVG Export Plug-In . SVG Version: 2.1.0 Build 116)  -->
  <g id="SVGRepo_iconCarrier">
    <path d="M671.7,87.8l-5-5.6-.6.6-9.4,8.4-137.8,121.9-10,8.8c.6.6.9,1.2,1.6,1.9l49.1,55.6,10.3,11.9-34.4,161.6-223.8-114.7c-15.9-3.4-37.5-5.3-57.8-2.8,0,0-5.3.9-7.2.9-107.8,18.8-184.4,180.9-220,300.3-15,50-23.1,91.9-25,126.6h400l-.3-231.9,164.1,65c34.7,9.1,70.3-11.6,79.4-46.2l42.2-188.4,96.9-85.6c16.2-14.4,18.1-39.7,4.1-55.6l-31.2-35.3M570.1,250.6l-22.5-25.9,116.9-105.6,60.6,69.1-155,62.5Z" fill="#181a21" stroke="#181a21" stroke-miterlimit="12.5" stroke-width="3.1"/>
    <circle cx="362" cy="148.4" r="146.9" fill="#181a21" stroke="#181a21" stroke-miterlimit="12.5" stroke-width="3.1"/>
  </g>
</svg>