<!DOCTYPE svg PUBLIC "-//W3C//DTD SVG 1.1//EN" "http://www.w3.org/Graphics/SVG/1.1/DTD/svg11.dtd">
<!-- Uploaded to: SVG Repo, www.svgrepo.com, Transformed by: SVG Repo Mixer Tools -->
<svg fill="#ffffff" height="800px" width="800px" version="1.2" baseProfile="tiny" id="Layer_1" xmlns="http://www.w3.org/2000/svg" xmlns:xlink="http://www.w3.org/1999/xlink" viewBox="0 0 256 256" xml:space="preserve" stroke="#ffffff">
<g id="SVGRepo_bgCarrier" stroke-width="0"/>
<g id="SVGRepo_tracerCarrier" stroke-linecap="round" stroke-linejoin="round"/>
<g id="SVGRepo_iconCarrier"> <path d="M215.6,34.6l-1.6-1.8l-0.2,0.2l-3,2.7l-44.1,39l-3.2,2.8c0.2,0.2,0.3,0.4,0.5,0.6l15.7,17.8l3.3,3.8l-11,51.7l-71.6-36.7 c-5.1-1.1-12-1.7-18.5-0.9c0,0-1.7,0.3-2.3,0.3c-34.5,6-59,57.9-70.4,96.1c-4.8,16-7.4,29.4-8,40.5h128l-0.1-74.2l52.5,20.8 c11.1,2.9,22.5-3.7,25.4-14.8l13.5-60.3l31-27.4c5.2-4.6,5.8-12.7,1.3-17.8l-10-11.3 M183.1,86.7l-7.2-8.3l37.4-33.8l19.4,22.1 L183.1,86.7z"/> <circle cx="116.5" cy="54" r="47"/> </g>
</svg>