<?xml version="1.0" encoding="UTF-8"?>
<svg id="Layer_1" data-name="Layer 1" xmlns="http://www.w3.org/2000/svg" viewBox="0 0 798.91 764.69">
  <g id="SVGRepo_iconCarrier" data-name="SVGRepo iconCarrier">
    <path d="M671.65,87.81l-5-5.62-.62.63-9.38,8.44-137.81,121.87-10,8.75c.62.62.94,1.25,1.56,1.87l49.06,55.62,10.31,11.88-34.38,161.56-223.75-114.69c-15.94-3.44-37.5-5.31-57.81-2.81,0,0-5.31.94-7.19.94-107.81,18.75-184.38,180.94-220,300.31-15,50-23.13,91.87-25,126.56h400l-.31-231.87,164.06,65c34.69,9.06,70.31-11.56,79.37-46.25l42.19-188.44,96.88-85.63c16.25-14.37,18.12-39.69,4.06-55.62l-31.25-35.31M570.09,250.62l-22.5-25.94,116.88-105.62,60.62,69.06-155,62.5Z" style="stroke: #000; stroke-miterlimit: 12.5; stroke-width: 3.12px;"/>
    <circle cx="361.96" cy="148.44" r="146.88" style="stroke: #000; stroke-miterlimit: 12.5; stroke-width: 3.12px;"/>
  </g>
</svg>