<?xml version="1.0" encoding="UTF-8"?>
<svg id="Layer_1" data-name="Layer 1" xmlns="http://www.w3.org/2000/svg" viewBox="0 0 798.97 764.8">
  <g id="SVGRepo_iconCarrier" data-name="SVGRepo iconCarrier">
    <path d="M671.64,87.85l-5-5.6-.6.6-9.4,8.4-137.8,121.9-10,8.8c.6.6.9,1.2,1.6,1.9l49.1,55.6,10.3,11.9-34.4,161.6-223.8-114.7c-15.9-3.4-37.5-5.3-57.8-2.8,0,0-5.3.9-7.2.9-107.8,18.8-184.4,180.9-220,300.3-15,50-23.1,91.9-25,126.6h400l-.3-231.9,164.1,65c34.7,9.1,70.3-11.6,79.4-46.2l42.2-188.4,96.9-85.6c16.2-14.4,18.1-39.7,4.1-55.6l-31.2-35.3M570.04,250.65l-22.5-25.9,116.9-105.6,60.6,69.1-155,62.5v-.1Z" style="fill: #c44343; stroke: #c44343; stroke-miterlimit: 12.5; stroke-width: 3.1px;"/>
    <circle cx="361.94" cy="148.45" r="146.9" style="fill: #c44343; stroke: #c44343; stroke-miterlimit: 12.5; stroke-width: 3.1px;"/>
  </g>
</svg>