<?xml version="1.0" encoding="UTF-8"?>
<svg id="icon" xmlns="http://www.w3.org/2000/svg" viewBox="0 0 800 800">
  <g id="SVGRepo_iconCarrier" data-name="SVGRepo iconCarrier">
    <path d="M700,150c0-27.61-22.39-50-50-50h-100v-50h-50v50h-200v-50h-50v50h-100c-27.61,0-50,22.39-50,50v500c0,27.61,22.39,50,50,50h100v-50h-100V150h100v50h50v-50h200v50h50v-50h100v150h50v-150Z" style="fill: #0b0b0d;"/>
    <polygon points="525 375 588.72 498.45 725 518.23 625 614.32 650 750 525 685.95 400 750 425 614.32 325 518.23 465 498.45 525 375" style="fill: #0b0b0d;"/>
    <rect id="_Transparent_Rectangle_" data-name=" Transparent Rectangle " width="800" height="800" style="fill: none;"/>
  </g>
</svg>