<?xml version="1.0" encoding="UTF-8"?>
<svg id="icon" xmlns="http://www.w3.org/2000/svg" viewBox="0 0 664.59 735.2">
  <g id="SVGRepo_iconCarrier" data-name="SVGRepo iconCarrier">
    <path d="M612.5,112.5c0-27.61-22.39-50-50-50h-100V12.5h-50v50h-200V12.5h-50v50H62.5c-27.61,0-50,22.39-50,50v500c0,27.61,22.39,50,50,50h100v-50H62.5V112.5h100v50h50v-50h200v50h50v-50h100v150h50V112.5Z" style="fill: #fff; stroke: #fff; stroke-miterlimit: 100; stroke-width: 25px;"/>
    <polygon points="437.5 337.5 501.22 460.95 637.5 480.73 537.5 576.82 562.5 712.5 437.5 648.45 312.5 712.5 337.5 576.82 237.5 480.73 377.5 460.95 437.5 337.5" style="fill: #fff; stroke: #fff; stroke-miterlimit: 100; stroke-width: 25px;"/>
  </g>
</svg>