<?xml version="1.0" encoding="UTF-8"?>
<svg id="_x32_" xmlns="http://www.w3.org/2000/svg" xmlns:xlink="http://www.w3.org/1999/xlink" version="1.1" viewBox="0 0 800 800">
  <!-- Generator: Adobe Illustrator 29.2.1, SVG Export Plug-In . SVG Version: 2.1.0 Build 116)  -->
  <g id="SVGRepo_iconCarrier">
    <g>
      <path d="M681.2,449.3c50.8,0,92-41.2,92-92s-41.2-92-92-92-92,41.2-92,92c0,50.8,41.2,92,92,92Z" fill="#181a21"/>
      <path d="M798.9,537.9c-4.1-24.6-24.5-59.1-39.9-74.5-2-2-11.1-2.5-13.6-1-18.7,11.5-40.7,18.3-64.4,18.3s-45.6-6.8-64.3-18.3c-2.5-1.5-11.5-1-13.5,1-4.3,4.3-9,10-13.6,16.7,12.4,23.3,22.2,48.1,25.8,69.5,3.5,21.4,2.4,41.7-3.3,60.1,20.4,7.4,44.8,10.6,69,10.6,63.2,0,127.9-21.9,117.8-82.4Z" fill="#181a21"/>
      <path d="M397.6,410.5c82.3,0,149.1-66.7,149.1-149.1s-66.7-149-149.1-149-149,66.7-149,149c0,82.3,66.7,149.1,149,149.1Z" fill="#181a21"/>
      <path d="M523.9,433.3c-3.2-3.2-17.9-4-21.9-1.6-30.4,18.7-66,29.6-104.3,29.6s-73.9-10.9-104.3-29.6c-4-2.5-18.7-1.6-21.9,1.6-25,25-58,80.9-64.7,120.8-16.4,98.2,88.5,133.6,190.9,133.6s207.2-35.4,190.9-133.6c-6.6-39.9-39.6-95.8-64.7-120.8Z" fill="#181a21"/>
      <path d="M118.8,449.3c50.8,0,92-41.2,92-92s-41.2-92-92-92-92,41.2-92,92c0,50.8,41.2,92,92,92Z" fill="#181a21"/>
      <path d="M179.8,549.6c3.8-22.4,14.4-48.8,27.8-73.3-3.7-5.1-7.4-9.5-10.9-12.9-2-2-11.1-2.5-13.5-1-18.7,11.5-40.7,18.3-64.3,18.3s-45.6-6.8-64.3-18.3c-2.5-1.5-11.5-1-13.6,1-15.4,15.4-35.8,49.9-39.9,74.5-10.1,60.5,54.6,82.4,117.8,82.4s45.3-2.8,64.8-9.1c-6.1-18.9-7.4-39.6-3.8-61.6Z" fill="#181a21"/>
    </g>
  </g>
</svg>