<!DOCTYPE svg PUBLIC "-//W3C//DTD SVG 1.1//EN" "http://www.w3.org/Graphics/SVG/1.1/DTD/svg11.dtd">
<!-- Uploaded to: SVG Repo, www.svgrepo.com, Transformed by: SVG Repo Mixer Tools -->
<svg width="800px" height="800px" viewBox="0 0 20 20" xmlns="http://www.w3.org/2000/svg" fill="#ffffff" stroke="#ffffff" stroke-width="0.0002">
<g id="SVGRepo_bgCarrier" stroke-width="0"/>
<g id="SVGRepo_tracerCarrier" stroke-linecap="round" stroke-linejoin="round"/>
<g id="SVGRepo_iconCarrier"> <rect x="0" fill="none" width="20" height="20"/> <g> <path d="M16 1.1L4 5.9c-1.1.4-2 1.8-2 3v8.7c0 1.2.9 1.8 2 1.4l12-4.8c1.1-.4 2-1.8 2-3V2.5c0-1.2-.9-1.8-2-1.4zm.6 2.6l-6 9.3-6.7-4.5c-.1-.1-.4-.4-.2-.7.2-.4.7-.2.7-.2l6.3 2.3s4.8-6.3 5.1-6.7c.1-.2.4-.3.7-.1.3.2.2.5.1.6z"/> </g> </g>
</svg>