<?xml version="1.0" encoding="UTF-8"?>
<svg id="Layer_1" data-name="Layer 1" xmlns="http://www.w3.org/2000/svg" viewBox="0 0 697.75 753.39">
  <path d="M240.59,554.98s168.68,56.36,232.5-11.74c41.33-44.1,59.9-204.14,93.16-295.52,11.26-30.93-7.27-55.85-54.23-72.95L209.29,64.59c-23.49-8.55-67.53-30.77-85.67,19.07C91.06,173.12.57,307.07,5.38,367.33c8,99.92,172.56,164.85,172.56,164.85l-23.74,65.21s-113.51,14.02-136.72,18.42c-24.82,4.26-18,28.02-10.97,34.25,11.74,10.37,38.67,40.14,133.2,74.54,96.91,35.27,136.46,28.05,149.64,28.4,5.08.15,35.21-9.22,13.33-35.9-38.96-47.48-85.83-96.91-85.83-96.91l23.74-65.21h0Z" style="fill: #8899a6;"/>
  <path d="M571.51,230.53c-12.32,33.85-75.49,41.93-244.14-19.45C158.73,149.7,115.53,102.9,127.85,69.05s75.49-41.93,244.14,19.45c168.64,61.38,211.84,108.18,199.52,142.03Z" style="fill: #ccd6dd;"/>
  <path d="M162.36,84.95c-29.56,213.9-153.71,265.27-71.78,332.55,98.91,81.19,166.27,98.19,281.03,102.29,105.05,3.76,83.58-132.16,156.8-292.74,18.87-41.31-366.05-142.1-366.05-142.1Z" style="fill: #ccd6dd;"/>
  <path d="M128.96,214.68c-9.96,21.98-69.34,119.7-68.47,147.52.94,29.9,11.84,81.17,161.5,135.64,109.63,39.9,191.26,32.18,217.78-5.47,23.06-32.75,37.21-118.48,46.25-148.71" style="fill: #0fa1f2;"/>
  <ellipse cx="306.21" cy="277.23" rx="33.33" ry="188.89" transform="translate(-59.03 470.15) rotate(-70)" style="fill: #3b88e2;"/>
  <path d="M530.45,131.85s-229.39,245.48-240.7,256.45c-13.8,13.42-1.69,43.7,27.03,21.26,28.7-22.45,244.88-234.81,244.88-234.81l-31.21-42.91h0Z" style="fill: #c1694f;"/>
  <path d="M323.71,216.79c-89.6-32.61-152.55-79.34-174.56-101.44-8.66-8.7-8.63-22.77.06-31.43,8.7-8.66,22.77-8.63,31.43.06h0c1.28,1.29,136.04,126.99,346.48,123.48,12.27-.2,22.39,9.58,22.59,21.85s-9.58,22.39-21.85,22.59h0c-76.66,1.28-146.01-13.96-204.15-35.12Z" style="fill: #fff;"/>
  <path d="M373.85,299.16l-25.54,27.22c14.71,4.88,30.86,9.22,44.83,12.23l17.31-16.64c-12.97-4.46-24.93-11.82-36.61-22.81h0Z" style="fill: #ffac33;"/>
  <path d="M289.76,388.3c-13.8,13.42-1.69,43.7,27.03,21.26,9.53-7.46,39.76-35.88,75.83-70.47-12.79-3.12-29.21-7.77-44.6-12.42-19.27,20.69-38.69,41.23-58.26,61.64Z" style="fill: #cc6f00;"/>
  <path d="M696.13,303.84c-9.28-40.79-54.22-201.69-56.15-208.61-1.95-6.89-7.08-12.43-13.81-14.89-30.47-11.09-99.34-36.54-150.83-55.56-30.87-11.4-55.51-20.51-62.03-22.88-13.53-4.93-27.87-.09-35.7,12.05-18.27,28.35-.71,101.22,108.99,213.32,72.68,74.25,120.5,101.7,147.84,111.65h.02c30.78,11.21,46.75,3.99,54.73-4.03,8.01-8.1,10.54-19.6,6.93-31.06h0Z" style="fill: #ddc728;"/>
  <path d="M517.73,257.52c55.39,51.57,93.54,72.95,116.72,81.38h.02c30.78,11.21,46.75,3.99,54.73-4.03,8.02-8.08,10.57-19.56,6.94-31.03-5.94-26.12-26.49-101.42-41.02-154.08-2.63,59.98-25.95,143.49-137.38,107.75h0Z" style="fill: #e8da74;"/>
  <circle cx="626.77" cy="90.92" r="37.51" style="fill: #e8da74;"/>
</svg>