<?xml version="1.0" encoding="UTF-8"?>
<svg id="Layer_1" data-name="Layer 1" xmlns="http://www.w3.org/2000/svg" viewBox="0 0 602.97 865.09">
  <path d="M400.67,641.25s165.44-65.25,170.56-158.45c3.31-60.35-85.33-194.88-118.59-286.26-11.26-30.93-41.47-38.11-88.43-21.02L61.48,285.7c-23.49,8.55-71.51,19.83-53.37,69.68,32.56,89.46,49.34,250.24,91.76,293.3,70.35,71.4,238.15,15.36,238.15,15.36l23.74,65.21s-77.94,83.7-92.9,101.99c-16.28,19.21,4.22,33.04,13.61,33.29,15.66.4,55.42,5.89,149.96-28.52,96.91-35.27,122.56-66.22,132.89-74.43,3.98-3.15,21.04-29.7-12.87-36.06-60.36-11.33-128.04-19.07-128.04-19.07l-23.74-65.21h0Z" style="fill: #8899a6;"/>
  <path d="M445.63,179.99c12.32,33.85-30.88,80.65-199.52,142.03C77.46,383.4,14.29,375.32,1.97,341.47s30.88-80.65,199.52-142.03c168.64-61.38,231.82-53.3,244.14-19.45Z" style="fill: #ccd6dd;"/>
  <path d="M38.62,331.46c114.85,182.86,52.76,302.01,158.77,300.89,127.96-1.38,190.48-31.66,281.03-102.29,82.89-64.65-20.93-154.96-68.05-325.04-12.1-43.77-371.75,126.44-371.75,126.44Z" style="fill: #ccd6dd;"/>
  <path d="M96.42,452.31c6.5,23.25,23.82,136.27,42.37,157.02,19.94,22.3,61.25,54.57,210.91.09,109.63-39.9,167.2-98.29,163.32-144.17-3.39-39.91-47.65-114.68-60.16-143.64" style="fill: #f4900c;"/>
  <ellipse cx="272.41" cy="386.3" rx="188.89" ry="33.33" transform="translate(-115.69 116.47) rotate(-20)" style="fill: #ffcc4d;"/>
  <path d="M350.74,130.78s-17.93,335.5-19.54,351.17c-1.94,19.15,26.79,34.57,34.37-1.09,7.55-35.64,36.66-337.28,36.66-337.28l-51.49-12.81h0Z" style="fill: #c1694f;"/>
  <path d="M246.97,328.75c-89.6,32.61-167.86,37.28-198.93,34.5-12.22-1.09-21.25-11.89-20.15-24.12,1.09-12.22,11.89-21.25,24.12-20.15h0c1.81.17,185.84,9.83,344.8-128.12,9.27-8.04,23.31-7.05,31.35,2.22s7.05,23.31-2.22,31.35h0c-57.9,50.26-120.82,83.16-178.96,104.32Z" style="fill: #fff;"/>
  <path d="M338.32,359.61l-2.07,37.27c14.4-5.72,29.57-12.77,42.2-19.45l2.57-23.87c-12.8,4.92-26.69,6.97-42.7,6.06h0Z" style="fill: #ffac33;"/>
  <path d="M331.2,481.96c-1.94,19.15,26.79,34.57,34.37-1.09,2.5-11.84,7.39-53.04,12.79-102.73-11.81,5.83-27.38,12.83-42.15,19.15-1.46,28.23-3.13,56.46-5.01,84.66Z" style="fill: #cc6f00;"/>
  <path d="M588.21,156.04c-33.32-25.28-171.18-119.65-177.1-123.71-5.92-4.03-13.41-4.97-20.15-2.53-30.47,11.09-99.58,35.87-151.25,54.39-30.98,11.11-55.71,19.97-62.22,22.34-13.53,4.93-21.41,17.84-19.6,32.18,4.23,33.46,64.52,77.99,220.61,93.35,103.4,10.16,157.69.45,185.02-9.5h.02c30.78-11.21,38.37-27,39.33-38.28.93-11.36-4.53-21.79-14.66-28.25h0Z" style="fill: #77b255;"/>
  <path d="M421.77,235.23c75.58,3.9,118.54-4.24,141.72-12.68h.02c30.78-11.21,38.37-27,39.33-38.28.96-11.34-4.48-21.78-14.63-28.23-21.34-16.19-85.48-60.67-130.46-91.66,36.54,47.64,72.35,126.6-35.98,170.85h0Z" style="fill: #5c913b;"/>
  <circle cx="398.22" cy="37.52" r="37.51" style="fill: #3e721d;"/>
</svg>